<?xml version="1.0" encoding="utf-8"?>
<!-- Generator: Adobe Illustrator 25.4.2, SVG Export Plug-In . SVG Version: 6.00 Build 0)  -->
<svg version="1.1" id="Capa_1" xmlns="http://www.w3.org/2000/svg" xmlns:xlink="http://www.w3.org/1999/xlink" x="0px" y="0px"
	 viewBox="0 0 8218 1552.3" style="enable-background:new 0 0 8218 1552.3;" xml:space="preserve">
<style type="text/css">
	.st0{clip-path:url(#SVGID_00000106847034657435334330000008799643354990065567_);fill:#E5E9D0;}
	.st1{clip-path:url(#SVGID_00000106847034657435334330000008799643354990065567_);}
	.st2{fill:#F9FAF5;}
	.st3{fill:#FFFCF8;}
</style>
<g>
	<defs>
		<rect id="SVGID_1_" width="8218" height="1552.3"/>
	</defs>
	<clipPath id="SVGID_00000158720925935687092080000017617262672172071356_">
		<use xlink:href="#SVGID_1_"  style="overflow:visible;"/>
	</clipPath>
	<path style="clip-path:url(#SVGID_00000158720925935687092080000017617262672172071356_);fill:#E5E9D0;" d="M2754.5,1367.2
		C1307.2,1649.5,468.7,1259.4-8.9,794.5C399.3,896.6,1190.5,991.8,2472,752.4C4390,394,6984.1-431.1,8213.2,554.5
		C6738.7,172.4,4763.1,975.5,2754.5,1367.2z"/>
	<g style="clip-path:url(#SVGID_00000158720925935687092080000017617262672172071356_);">
		<path class="st2" d="M0,793.8v0.9c1,0.3,2.1,0.5,3.1,0.8L0,793.8z"/>
		<path class="st3" d="M8218,556.8l-5.1-2.6c0.1,0.1,0.2,0.2,0.3,0.3c-1473.1-382.2-3446.9,421-5453.6,812.7
			C1314.8,1649.2,477.3,1260.1,0,795.7v756.6h8218V556.8z"/>
	</g>
</g>
</svg>
